<!-- Generated by IcoMoon.io -->
<svg version="1.1" xmlns="http://www.w3.org/2000/svg" width="1024" height="1024" viewBox="0 0 1024 1024">
<title></title>
<g id="icomoon-ignore">
</g>
<path fill="#000" d="M934.012 279.273c-43.585-74.678-102.703-133.798-177.374-177.379-74.679-43.583-156.211-65.367-244.646-65.367-88.424 0-169.98 21.791-244.646 65.367-74.678 43.578-133.794 102.701-177.379 177.379-43.578 74.675-65.367 156.22-65.367 244.632 0 106.204 30.987 201.705 92.973 286.529 61.979 84.831 142.049 143.529 240.201 176.104 11.426 2.12 19.881 0.628 25.382-4.436 5.5-5.073 8.248-11.426 8.248-19.032 0-1.27-0.108-12.689-0.321-34.267-0.217-21.581-0.321-40.407-0.321-56.472l-14.596 2.526c-9.306 1.704-21.048 2.427-35.221 2.224-14.169-0.199-28.876-1.684-44.105-4.443-15.236-2.736-29.404-9.082-42.523-19.025-13.109-9.943-22.417-22.958-27.917-39.022l-6.345-14.603c-4.23-9.721-10.89-20.524-19.988-32.362-9.098-11.851-18.297-19.881-27.606-24.112l-4.443-3.18c-2.96-2.113-5.708-4.665-8.248-7.623-2.538-2.958-4.438-5.918-5.708-8.885-1.273-2.967-0.217-5.401 3.173-7.311s9.516-2.835 18.404-2.835l12.689 1.896c8.463 1.695 18.93 6.761 31.413 15.229 12.479 8.461 22.735 19.459 30.776 32.991 9.735 17.351 21.466 30.573 35.221 39.671 13.746 9.098 27.606 13.64 41.565 13.64s26.015-1.057 36.172-3.164c10.146-2.115 19.667-5.297 28.557-9.525 3.808-28.359 14.175-50.143 31.093-65.372-24.112-2.533-45.793-6.35-65.049-11.426-19.244-5.082-39.133-13.328-59.647-24.761-20.528-11.419-37.556-25.597-51.089-42.514-13.536-16.923-24.645-39.142-33.313-66.637-8.671-27.504-13.007-59.231-13.007-95.192 0-51.202 16.716-94.771 50.138-130.736-15.659-38.493-14.178-81.646 4.438-129.455 12.271-3.812 30.464-0.951 54.579 8.565 24.116 9.521 41.774 17.677 52.99 24.438 11.215 6.759 20.203 12.488 26.973 17.134 39.355-10.996 79.968-16.494 121.849-16.494s82.503 5.498 121.86 16.494l24.114-15.224c16.492-10.158 35.965-19.466 58.375-27.929 22.424-8.459 39.569-10.787 51.422-6.976 19.032 47.811 20.727 90.962 5.066 129.455 33.423 35.965 50.143 79.548 50.143 130.736 0 35.96-4.353 67.787-13.010 95.503-8.668 27.721-19.875 49.916-33.618 66.637-13.76 16.718-30.898 30.785-51.415 42.202-20.521 11.426-40.414 19.672-59.659 24.754-19.254 5.082-40.932 8.899-65.046 11.44 21.992 19.032 32.991 49.071 32.991 90.109v133.893c0 7.606 2.645 13.956 7.939 19.032 5.288 5.066 13.64 6.558 25.063 4.433 98.163-32.57 178.233-91.271 240.21-176.102 61.97-84.824 92.968-180.325 92.968-286.529-0.023-88.403-21.824-169.941-65.381-244.613z"></path>
</svg>
